<svg width="5263" height="1558" viewBox="0 0 5263 1558" fill="none" xmlns="http://www.w3.org/2000/svg">
<line x1="2091" y1="494" x2="2091" y2="1064" stroke="black" stroke-width="8"/>
<path d="M4667.31 906.888V557.977H4730.11V690.065H4739.09C4741.74 684.748 4745.9 679.431 4751.55 674.115C4757.2 668.798 4764.67 664.478 4773.98 661.155C4783.61 657.5 4795.74 655.672 4810.36 655.672C4829.64 655.672 4846.42 660.158 4860.71 669.13C4875.33 677.77 4886.63 689.899 4894.6 705.517C4902.58 720.802 4906.56 738.746 4906.56 759.349V906.888H4843.76V764.333C4843.76 745.724 4839.11 731.768 4829.8 722.464C4820.83 713.159 4807.87 708.507 4790.92 708.507C4771.65 708.507 4756.7 714.987 4746.06 727.947C4735.43 740.574 4730.11 758.352 4730.11 781.28V906.888H4667.31Z" fill="black"/>
<path d="M4349.45 1006.58V659.661H4411.26V689.568H4420.23C4425.88 679.931 4434.69 671.457 4446.65 664.147C4458.61 656.504 4475.73 652.683 4497.99 652.683C4517.93 652.683 4536.37 657.667 4553.32 667.636C4570.27 677.273 4583.89 691.561 4594.19 710.502C4604.49 729.443 4609.64 752.372 4609.64 779.288V787.263C4609.64 814.179 4604.49 837.107 4594.19 856.048C4583.89 874.989 4570.27 889.444 4553.32 899.413C4536.37 909.049 4517.93 913.868 4497.99 913.868C4483.04 913.868 4470.41 912.04 4460.11 908.385C4450.14 905.062 4442 900.742 4435.68 895.425C4429.7 889.776 4424.89 884.127 4421.23 878.478H4412.26V1006.58H4349.45ZM4479.05 859.039C4498.66 859.039 4514.77 852.891 4527.4 840.596C4540.36 827.969 4546.84 809.693 4546.84 785.767V780.783C4546.84 756.858 4540.36 738.747 4527.4 726.452C4514.44 713.825 4498.32 707.512 4479.05 707.512C4459.78 707.512 4443.66 713.825 4430.7 726.452C4417.74 738.747 4411.26 756.858 4411.26 780.783V785.767C4411.26 809.693 4417.74 827.969 4430.7 840.596C4443.66 852.891 4459.78 859.039 4479.05 859.039Z" fill="black"/>
<path d="M4138.05 913.868C4120.44 913.868 4104.65 910.877 4090.7 904.896C4076.74 898.582 4065.61 889.61 4057.3 877.98C4049.33 866.017 4045.34 851.562 4045.34 834.615C4045.34 817.668 4049.33 803.545 4057.3 792.247C4065.61 780.617 4076.91 771.977 4091.2 766.328C4105.82 760.347 4122.43 757.356 4141.04 757.356H4208.83V743.4C4208.83 731.769 4205.17 722.299 4197.86 714.988C4190.55 707.345 4178.92 703.524 4162.97 703.524C4147.35 703.524 4135.72 707.179 4128.08 714.49C4120.44 721.468 4115.45 730.606 4113.13 741.904L4055.31 722.465C4059.3 709.838 4065.61 698.373 4074.25 688.072C4083.22 677.439 4095.02 668.965 4109.64 662.652C4124.59 656.006 4142.7 652.683 4163.97 652.683C4196.53 652.683 4222.29 660.824 4241.23 677.106C4260.17 693.389 4269.64 716.982 4269.64 747.886V840.098C4269.64 850.067 4274.29 855.051 4283.6 855.051H4303.53V906.889H4261.66C4249.37 906.889 4239.23 903.899 4231.26 897.917C4223.28 891.936 4219.3 883.961 4219.3 873.992V873.494H4209.83C4208.5 877.481 4205.51 882.798 4200.85 889.444C4196.2 895.757 4188.89 901.406 4178.92 906.391C4168.95 911.375 4155.33 913.868 4138.05 913.868ZM4149.02 863.026C4166.63 863.026 4180.92 858.208 4191.88 848.571C4203.18 838.602 4208.83 825.477 4208.83 809.194V804.21H4145.53C4133.9 804.21 4124.76 806.702 4118.11 811.686C4111.47 816.671 4108.14 823.649 4108.14 832.621C4108.14 841.593 4111.63 848.904 4118.61 854.553C4125.59 860.202 4135.72 863.026 4149.02 863.026Z" fill="black"/>
<path d="M3869.51 906.891V659.662H3931.31V687.575H3940.29C3943.94 677.606 3949.92 670.296 3958.23 665.644C3966.87 660.992 3976.84 658.666 3988.14 658.666H4018.04V714.491H3987.14C3971.19 714.491 3958.06 718.811 3947.76 727.451C3937.46 735.758 3932.31 748.718 3932.31 766.33V906.891H3869.51Z" fill="black"/>
<path d="M3658.11 913.868C3634.18 913.868 3612.42 908.551 3592.81 897.917C3573.54 886.952 3558.09 871.168 3546.45 850.565C3535.16 829.63 3529.51 804.21 3529.51 774.303V690.564C3529.51 645.704 3542.14 611.312 3567.39 587.386C3592.64 563.129 3626.87 551 3670.07 551C3712.94 551 3746 562.464 3769.26 585.393C3792.85 607.989 3804.65 638.726 3804.65 677.605V679.599H3739.85V675.611C3739.85 663.316 3737.19 652.184 3731.88 642.215C3726.89 632.246 3719.25 624.437 3708.95 618.788C3698.65 612.807 3685.69 609.816 3670.07 609.816C3646.81 609.816 3628.53 616.961 3615.24 631.25C3601.95 645.538 3595.3 664.978 3595.3 689.568V775.3C3595.3 799.558 3601.95 819.163 3615.24 834.116C3628.53 848.738 3647.14 856.048 3671.07 856.048C3694.99 856.048 3712.44 849.734 3723.4 837.107C3734.37 824.48 3739.85 808.53 3739.85 789.256V784.272H3657.11V728.446H3804.65V906.889H3743.84V873.494H3734.87C3732.54 879.143 3728.72 885.124 3723.4 891.438C3718.42 897.751 3710.78 903.068 3700.47 907.388C3690.17 911.708 3676.05 913.868 3658.11 913.868Z" fill="black"/>
<path d="M3364.45 913.868C3339.86 913.868 3318.09 908.717 3299.15 898.416C3280.55 887.782 3265.92 872.995 3255.29 854.054C3244.99 834.781 3239.84 812.185 3239.84 786.266V780.284C3239.84 754.365 3244.99 731.935 3255.29 712.994C3265.59 693.721 3280.05 678.934 3298.66 668.633C3317.26 657.999 3338.86 652.683 3363.45 652.683C3387.71 652.683 3408.81 658.166 3426.76 669.131C3444.7 679.765 3458.66 694.718 3468.62 713.991C3478.59 732.932 3483.58 755.03 3483.58 780.284V801.718H3303.64C3304.3 818.665 3310.62 832.455 3322.58 843.088C3334.54 853.722 3349.16 859.039 3366.44 859.039C3384.06 859.039 3397.01 855.217 3405.32 847.574C3413.63 839.932 3419.94 831.458 3424.26 822.154L3475.6 849.07C3470.95 857.709 3464.14 867.18 3455.17 877.481C3446.53 887.45 3434.9 896.09 3420.28 903.4C3405.65 910.378 3387.05 913.868 3364.45 913.868ZM3304.14 754.864H3419.78C3418.45 740.575 3412.63 729.111 3402.33 720.471C3392.36 711.831 3379.24 707.512 3362.95 707.512C3346.01 707.512 3332.55 711.831 3322.58 720.471C3312.61 729.111 3306.46 740.575 3304.14 754.864Z" fill="black"/>
<path d="M3033.63 913.866C3014.03 913.866 2995.59 909.048 2978.31 899.411C2961.36 889.443 2947.74 874.988 2937.44 856.047C2927.13 837.106 2921.98 814.177 2921.98 787.261V779.286C2921.98 752.37 2927.13 729.442 2937.44 710.501C2947.74 691.56 2961.36 677.271 2978.31 667.635C2995.25 657.666 3013.7 652.681 3033.63 652.681C3048.59 652.681 3061.05 654.509 3071.02 658.164C3081.32 661.487 3089.63 665.807 3095.94 671.124C3102.25 676.441 3107.07 682.09 3110.4 688.071H3119.37V557.977H3182.17V906.888H3120.36V876.981H3111.39C3105.74 886.286 3096.94 894.759 3084.97 902.402C3073.34 910.045 3056.23 913.866 3033.63 913.866ZM3052.58 859.037C3071.85 859.037 3087.97 852.89 3100.92 840.595C3113.88 827.968 3120.36 809.691 3120.36 785.766V780.782C3120.36 756.856 3113.88 738.746 3100.92 726.451C3088.3 713.824 3072.18 707.51 3052.58 707.51C3033.3 707.51 3017.19 713.824 3004.23 726.451C2991.27 738.746 2984.79 756.856 2984.79 780.782V785.766C2984.79 809.691 2991.27 827.968 3004.23 840.595C3017.19 852.89 3033.3 859.037 3052.58 859.037Z" fill="black"/>
<path d="M2746.38 913.868C2721.79 913.868 2699.69 908.883 2680.09 898.914C2660.48 888.945 2645.03 874.49 2633.73 855.55C2622.43 836.609 2616.78 813.846 2616.78 787.263V779.288C2616.78 752.704 2622.43 729.942 2633.73 711.001C2645.03 692.06 2660.48 677.605 2680.09 667.636C2699.69 657.667 2721.79 652.683 2746.38 652.683C2770.97 652.683 2793.07 657.667 2812.67 667.636C2832.28 677.605 2847.73 692.06 2859.03 711.001C2870.33 729.942 2875.97 752.704 2875.97 779.288V787.263C2875.97 813.846 2870.33 836.609 2859.03 855.55C2847.73 874.49 2832.28 888.945 2812.67 898.914C2793.07 908.883 2770.97 913.868 2746.38 913.868ZM2746.38 858.042C2765.65 858.042 2781.6 851.894 2794.23 839.599C2806.86 826.972 2813.17 809.028 2813.17 785.767V780.783C2813.17 757.522 2806.86 739.744 2794.23 727.449C2781.93 714.822 2765.98 708.508 2746.38 708.508C2727.11 708.508 2711.16 714.822 2698.53 727.449C2685.9 739.744 2679.59 757.522 2679.59 780.783V785.767C2679.59 809.028 2685.9 826.972 2698.53 839.599C2711.16 851.894 2727.11 858.042 2746.38 858.042Z" fill="black"/>
<path d="M2438.56 913.868C2395.36 913.868 2361.14 901.905 2335.88 877.98C2310.63 853.722 2298 819.163 2298 774.303V690.564C2298 645.704 2310.63 611.312 2335.88 587.386C2361.14 563.129 2395.36 551 2438.56 551C2481.43 551 2514.49 562.797 2537.75 586.39C2561.34 609.65 2573.14 641.717 2573.14 682.589V685.58H2508.34V680.596C2508.34 659.993 2502.53 643.046 2490.9 629.754C2479.6 616.462 2462.15 609.816 2438.56 609.816C2415.3 609.816 2397.02 616.961 2383.73 631.25C2370.44 645.538 2363.79 664.978 2363.79 689.568V775.3C2363.79 799.558 2370.44 818.997 2383.73 833.618C2397.02 847.907 2415.3 855.051 2438.56 855.051C2462.15 855.051 2479.6 848.405 2490.9 835.113C2502.53 821.489 2508.34 804.542 2508.34 784.272V775.3H2573.14V782.278C2573.14 823.151 2561.34 855.383 2537.75 878.976C2514.49 902.237 2481.43 913.868 2438.56 913.868Z" fill="black"/>
<g clip-path="url(#clip0_1271_120)">
<path d="M635.74 735.169C625.507 724.878 609.964 719.741 589.057 719.741C568.15 719.741 551.954 724.595 537.398 734.269C537.24 734.357 537.098 734.463 536.957 734.569C519.544 746.325 528.277 773.669 549.272 773.669H549.607C550.595 773.669 551.477 773.033 551.883 772.133C554.036 767.279 557.494 763.395 562.222 760.482C567.427 757.305 573.496 755.716 580.482 755.716C588.033 755.716 593.697 757.605 597.402 761.383C601.124 765.196 602.377 770.297 601.107 776.67L598.69 788.973H564.639C543.15 788.973 525.825 793.404 512.628 802.283C499.413 811.162 491.192 823.925 487.91 840.483C484.875 855.876 487.275 868.038 495.179 877.024C503.03 886.026 515.257 890.51 531.77 890.51C546.502 890.51 559.011 886.874 569.314 879.583C576.495 874.482 581.77 868.144 585.122 860.536H586.04L581.276 884.526C580.976 886.079 582.158 887.527 583.711 887.527H603.542C615.433 887.527 625.63 879.107 627.942 867.438L645.885 776.67C649.307 759.3 645.937 745.478 635.74 735.187V735.169ZM590.168 832.098C588.686 839.689 584.628 845.832 578.03 850.51C571.414 855.205 563.757 857.553 554.988 857.553C547.031 857.553 541.139 855.611 537.328 851.71C533.535 847.826 532.282 842.478 533.623 835.682C534.893 829.309 537.998 824.172 542.956 820.253C547.896 816.37 553.736 814.428 560.511 814.428H593.644L590.168 832.098Z" fill="#191919"/>
<path d="M755.394 847.067H725.595C720.232 847.067 716.209 845.426 713.598 842.125C710.952 838.841 710.176 834.499 711.252 829.097L742.339 671.814C742.638 670.278 741.456 668.849 739.886 668.849H669.121C667.921 668.849 666.915 669.696 666.668 670.843L659.664 706.307C659.364 707.843 660.546 709.273 662.099 709.273H687.116C688.686 709.273 689.869 710.72 689.569 712.256L666.474 829.097C664.181 840.677 664.604 850.88 667.744 859.653C670.885 868.444 676.354 875.293 684.135 880.183C691.915 885.09 701.601 887.527 713.14 887.527H748.408C749.607 887.527 750.613 886.679 750.86 885.514L757.864 850.05C758.164 848.515 756.982 847.085 755.43 847.085L755.394 847.067Z" fill="#191919"/>
<path d="M936.445 722.741H892.885C892.109 722.741 891.368 723.112 890.891 723.73L845.002 785.037H830.376L852.747 671.797C853.047 670.261 851.865 668.831 850.313 668.831H810.598C809.416 668.831 808.393 669.678 808.164 670.826L765.944 884.526C765.644 886.061 766.826 887.491 768.379 887.491H789.692C801.565 887.491 811.78 879.089 814.092 867.438L822.913 822.795H837.239L858.499 885.797C858.834 886.803 859.787 887.491 860.845 887.491H906.276C908.005 887.491 909.205 885.779 908.622 884.173L879.882 803.325L938.403 726.749C939.656 725.107 938.492 722.741 936.428 722.741H936.445Z" fill="#191919"/>
<path d="M1074.82 751.038C1070.88 741.153 1064.14 733.474 1054.6 727.984C1045.04 722.494 1032.9 719.741 1018.17 719.741C1003.44 719.741 990.468 722.494 978.63 727.984C966.809 733.474 956.964 741.153 949.148 751.038C941.315 760.924 936.11 772.451 933.499 785.637L925.807 824.578C923.196 837.747 923.849 849.292 927.765 859.177C931.682 869.062 938.475 876.759 948.125 882.249C957.793 887.739 969.879 890.492 984.399 890.492C998.919 890.492 1012.35 887.739 1024.08 882.249C1035.81 876.759 1045.6 869.062 1053.42 859.177C1061.23 849.292 1066.46 837.765 1069.05 824.578L1076.74 785.637C1079.34 772.451 1078.68 760.924 1074.78 751.038H1074.82ZM1032.02 785.655L1024.32 824.596C1022.63 833.175 1019.03 839.812 1013.53 844.508C1008.02 849.186 1000.9 851.551 992.144 851.551C983.393 851.551 977.43 849.203 973.672 844.508C969.914 839.812 968.909 833.175 970.602 824.596L978.295 785.655C980.041 776.882 983.693 770.174 989.268 765.584C994.844 760.994 1001.92 758.7 1010.49 758.7C1019.07 758.7 1025.45 760.994 1029.14 765.584C1032.81 770.174 1033.76 776.882 1032.03 785.655H1032.02Z" fill="#191919"/>
<path d="M1239.9 782.654C1239.13 786.59 1237.01 789.944 1234.13 792.327C1231.22 794.693 1227.52 796.105 1223.51 796.105H1192.51C1190.94 796.105 1189.78 794.693 1190.08 793.139L1191.58 785.619C1193.34 776.634 1192.27 769.644 1188.4 764.666C1184.52 759.67 1178.47 757.181 1170.34 757.181C1161.76 757.181 1154.76 759.67 1149.29 764.666C1143.82 769.644 1140.2 776.634 1138.42 785.619L1122.28 867.403C1119.97 879.071 1109.73 887.491 1097.88 887.491H1076.57C1074.99 887.491 1073.83 886.044 1074.13 884.508L1105.69 724.736C1105.92 723.571 1106.96 722.742 1108.13 722.742H1144.84C1146.41 722.742 1147.6 724.154 1147.31 725.707L1141.67 754.181H1142.14C1145.78 745.619 1150.59 738.629 1156.58 733.227C1166.51 724.242 1179.33 719.741 1195.05 719.741C1213.16 719.741 1226.14 725.248 1234.03 736.21C1241.91 747.208 1243.87 762.689 1239.92 782.654H1239.9Z" fill="#191919"/>
<path d="M517.885 668.814H400.966C399.784 668.814 398.76 669.661 398.531 670.826L357.053 884.543C356.753 886.079 357.935 887.509 359.487 887.509H383.764C395.655 887.509 405.906 879.054 408.182 867.368L419.914 807.014C420.144 805.849 421.167 804.984 422.349 804.984H465.715C477.642 804.984 487.875 796.529 490.133 784.825L492.815 770.986C493.115 769.468 491.933 768.02 490.362 768.02H430.447C428.894 768.02 427.695 766.59 428.012 765.054L439.198 707.772C439.427 706.607 440.451 705.76 441.633 705.76H493.238C505.165 705.76 515.398 697.305 517.656 685.601L520.338 671.762C520.638 670.226 519.455 668.796 517.885 668.796V668.814Z" fill="#191919"/>
<path d="M1426.56 701.912C1422.38 691.426 1415.22 683.288 1405.15 677.498C1395.04 671.744 1382.44 668.813 1367.28 668.813H1299.45C1297.75 668.813 1296.31 670.014 1295.99 671.656L1254.19 883.29C1253.77 885.479 1255.43 887.509 1257.65 887.509H1324.09C1339.21 887.509 1352.99 884.561 1365.38 878.683C1377.8 872.769 1388.21 864.526 1396.55 853.969C1404.9 843.378 1410.46 831.092 1413.23 817.094L1428.66 738.929C1431.47 724.736 1430.78 712.38 1426.58 701.912H1426.56ZM1383.9 738.946L1368.43 817.111C1366.74 825.726 1362.59 832.592 1356.01 837.782C1349.39 843.007 1341.51 845.602 1332.37 845.602H1306.42L1333.06 710.791H1359.01C1368.15 710.791 1375.03 713.386 1379.56 718.576C1384.1 723.765 1385.58 730.562 1383.92 738.964L1383.9 738.946Z" fill="#191919"/>
<path d="M1583.23 683.942C1572.12 673.862 1555.48 668.813 1533.37 668.813H1466.15C1464.48 668.813 1463.01 670.014 1462.7 671.656L1420.87 883.29C1420.44 885.479 1422.1 887.509 1424.32 887.509H1492.88C1508.18 887.509 1521.94 884.914 1534.1 879.724C1546.27 874.534 1556.34 867.191 1564.27 857.676C1572.22 848.197 1577.45 837.076 1580 824.296C1582.19 813.122 1581.56 803.731 1578.1 796.123C1574.61 788.567 1569.24 782.866 1561.9 779.053C1554.6 775.275 1546.06 773.475 1536.27 773.651L1536.44 772.786C1545.19 772.786 1553.68 770.774 1561.97 766.767C1570.21 762.777 1577.27 757.181 1583.18 749.979C1589.09 742.812 1592.97 734.427 1594.88 724.842C1598.26 707.666 1594.37 694.003 1583.25 683.924L1583.23 683.942ZM1535.39 821.93C1533.55 831.11 1529.33 838.276 1522.75 843.466C1516.17 848.691 1507.95 851.286 1498.25 851.286H1470.49L1482.16 792.257H1509.91C1519.63 792.257 1526.79 794.922 1531.33 800.218C1535.83 805.478 1537.2 812.751 1535.4 821.93H1535.39ZM1548.6 730.844C1547.01 738.841 1543.27 745.178 1537.36 749.856C1531.45 754.534 1524.11 756.917 1515.36 756.917H1489.13L1499.34 705.089H1525.61C1534.36 705.089 1540.77 707.331 1544.88 711.832C1548.95 716.334 1550.21 722.671 1548.58 730.844H1548.6Z" fill="#191919"/>
<path d="M1875.65 778.047C1875.15 780.641 1874.17 783.201 1873.09 785.478C1871.43 789.009 1869.24 792.345 1866.61 795.222C1860.65 801.771 1852.22 805.09 1843.61 806.838C1835 808.585 1808.82 807.455 1797.9 804.825C1770.05 798.1 1741.31 798.241 1724.29 804.825C1713.49 809.009 1709.72 811.41 1704 816.317C1681.43 835.735 1671.33 882.69 1662.38 910.334C1656.29 929.239 1650.31 948.904 1636.62 963.82C1615.54 986.733 1580.45 992.982 1548.64 992.982H1379.21C1377.47 992.982 1376.14 991.393 1376.49 989.681L1379.78 972.805C1382.44 959.054 1394.49 949.134 1408.48 949.134H1531.96C1559.06 949.134 1588.05 945.338 1603.06 924.597C1611.5 912.929 1613.92 898.489 1617.36 884.738C1629.42 836.617 1633.43 792.133 1681.58 773.174C1667.39 764.295 1657.07 749.962 1653.49 734.198C1646.89 705.089 1662.5 675.786 1663.93 646.06C1664.57 633.403 1661.59 619.122 1650.49 612.096C1642.71 607.171 1632.72 607.012 1623.37 607.012C1588.26 607.048 1566.07 607.065 1525.26 607.101H1477.24C1458.87 607.101 1445.09 590.366 1448.6 572.343L1449.59 567.224C1449.85 565.918 1450.98 564.982 1452.31 564.982C1474.02 564.982 1594.98 565.106 1636.32 564.982C1660.19 564.929 1687.01 566.041 1703.17 582.67C1708.53 588.195 1711.96 594.621 1713.97 601.576C1714.07 601.858 1714.13 602.14 1714.22 602.441C1718.86 619.475 1715.2 639.581 1710.55 657.322C1704.55 680.411 1698.09 707.243 1710.97 729.308C1716.09 738.082 1724.11 744.56 1733.64 748.002C1738.97 749.926 1741.24 750.897 1746.89 750.844C1749.71 750.809 1752.54 750.544 1755.32 750.032C1760.88 749.061 1766.93 747.702 1771.94 746.714C1774.34 746.237 1776.76 745.813 1779.19 745.46C1785.79 744.525 1792.87 744.348 1799.59 745.69C1804.51 746.678 1809.33 748.496 1813.46 751.391C1817.85 754.481 1820.43 758.311 1822.74 763.077C1824.02 765.743 1825.63 768.444 1828.24 769.838C1832.92 772.327 1840.19 770.65 1845.21 770.244C1850.45 769.821 1855.66 769.009 1860.88 768.408C1863.42 768.108 1865.96 767.861 1868.52 767.738C1870.53 767.649 1872.72 767.896 1874.22 769.397C1875.29 770.474 1875.82 772.009 1875.93 773.545C1876.04 775.028 1875.91 776.528 1875.63 778.029L1875.65 778.047Z" fill="url(#paint0_linear_1271_120)"/>
</g>
<defs>
<linearGradient id="paint0_linear_1271_120" x1="1876.05" y1="564.999" x2="1367.59" y2="980.986" gradientUnits="userSpaceOnUse">
<stop stop-color="#7466FF"/>
<stop offset="0.5" stop-color="#FF66B3"/>
<stop offset="1" stop-color="#FF804D"/>
</linearGradient>
<clipPath id="clip0_1271_120">
<rect width="1519" height="428" fill="white" transform="translate(357 565)"/>
</clipPath>
</defs>
</svg>
