<svg width="881" height="246" viewBox="0 0 881 246" fill="none" xmlns="http://www.w3.org/2000/svg">
<g clip-path="url(#clip0_738_3463)">
<path d="M157.99 96.9705C152.19 91.1405 143.38 88.2305 131.53 88.2305C119.68 88.2305 110.5 90.9805 102.25 96.4605C102.16 96.5105 102.08 96.5705 102 96.6305C92.13 103.29 97.08 118.78 108.98 118.78H109.17C109.73 118.78 110.23 118.42 110.46 117.91C111.68 115.16 113.64 112.96 116.32 111.31C119.27 109.51 122.71 108.61 126.67 108.61C130.95 108.61 134.16 109.68 136.26 111.82C138.37 113.98 139.08 116.87 138.36 120.48L136.99 127.45H117.69C105.51 127.45 95.69 129.96 88.21 134.99C80.72 140.02 76.06 147.25 74.2 156.63C72.48 165.35 73.84 172.24 78.32 177.33C82.77 182.43 89.7 184.97 99.06 184.97C107.41 184.97 114.5 182.91 120.34 178.78C124.41 175.89 127.4 172.3 129.3 167.99H129.82L127.12 181.58C126.95 182.46 127.62 183.28 128.5 183.28H139.74C146.48 183.28 152.26 178.51 153.57 171.9L163.74 120.48C165.68 110.64 163.77 102.81 157.99 96.9805V96.9705ZM132.16 151.87C131.32 156.17 129.02 159.65 125.28 162.3C121.53 164.96 117.19 166.29 112.22 166.29C107.71 166.29 104.37 165.19 102.21 162.98C100.06 160.78 99.35 157.75 100.11 153.9C100.83 150.29 102.59 147.38 105.4 145.16C108.2 142.96 111.51 141.86 115.35 141.86H134.13L132.16 151.87Z" fill="#191919"/>
<path d="M225.81 160.36H208.92C205.88 160.36 203.6 159.43 202.12 157.56C200.62 155.7 200.18 153.24 200.79 150.18L218.41 61.0804C218.58 60.2104 217.91 59.4004 217.02 59.4004H176.91C176.23 59.4004 175.66 59.8804 175.52 60.5304L171.55 80.6204C171.38 81.4904 172.05 82.3004 172.93 82.3004H187.11C188 82.3004 188.67 83.1204 188.5 83.9904L175.41 150.18C174.11 156.74 174.35 162.52 176.13 167.49C177.91 172.47 181.01 176.35 185.42 179.12C189.83 181.9 195.32 183.28 201.86 183.28H221.85C222.53 183.28 223.1 182.8 223.24 182.14L227.21 162.05C227.38 161.18 226.71 160.37 225.83 160.37L225.81 160.36Z" fill="#191919"/>
<path d="M328.43 89.9296H303.74C303.3 89.9296 302.88 90.1396 302.61 90.4896L276.6 125.22H268.31L280.99 61.0696C281.16 60.1996 280.49 59.3896 279.61 59.3896H257.1C256.43 59.3896 255.85 59.8696 255.72 60.5196L231.79 181.58C231.62 182.45 232.29 183.26 233.17 183.26H245.25C251.98 183.26 257.77 178.5 259.08 171.9L264.08 146.61H272.2L284.25 182.3C284.44 182.87 284.98 183.26 285.58 183.26H311.33C312.31 183.26 312.99 182.29 312.66 181.38L296.37 135.58L329.54 92.1996C330.25 91.2696 329.59 89.9296 328.42 89.9296H328.43Z" fill="#191919"/>
<path d="M406.86 105.96C404.63 100.36 400.81 96.0105 395.4 92.9005C389.98 89.7905 383.1 88.2305 374.75 88.2305C366.4 88.2305 359.05 89.7905 352.34 92.9005C345.64 96.0105 340.06 100.36 335.63 105.96C331.19 111.56 328.24 118.09 326.76 125.56L322.4 147.62C320.92 155.08 321.29 161.62 323.51 167.22C325.73 172.82 329.58 177.18 335.05 180.29C340.53 183.4 347.38 184.96 355.61 184.96C363.84 184.96 371.45 183.4 378.1 180.29C384.75 177.18 390.3 172.82 394.73 167.22C399.16 161.62 402.12 155.09 403.59 147.62L407.95 125.56C409.42 118.09 409.05 111.56 406.84 105.96H406.86ZM382.6 125.57L378.24 147.63C377.28 152.49 375.24 156.25 372.12 158.91C369 161.56 364.96 162.9 360 162.9C355.04 162.9 351.66 161.57 349.53 158.91C347.4 156.25 346.83 152.49 347.79 147.63L352.15 125.57C353.14 120.6 355.21 116.8 358.37 114.2C361.53 111.6 365.54 110.3 370.4 110.3C375.26 110.3 378.88 111.6 380.97 114.2C383.05 116.8 383.59 120.6 382.61 125.57H382.6Z" fill="#191919"/>
<path d="M500.43 123.87C499.99 126.1 498.79 128 497.16 129.35C495.51 130.69 493.41 131.49 491.14 131.49H473.57C472.68 131.49 472.02 130.69 472.19 129.81L473.04 125.55C474.04 120.46 473.43 116.5 471.24 113.68C469.04 110.85 465.61 109.44 461 109.44C456.14 109.44 452.17 110.85 449.07 113.68C445.97 116.5 443.92 120.46 442.91 125.55L433.76 171.88C432.45 178.49 426.65 183.26 419.93 183.26H407.85C406.96 183.26 406.3 182.44 406.47 181.57L424.36 91.0605C424.49 90.4005 425.08 89.9305 425.74 89.9305H446.55C447.44 89.9305 448.11 90.7305 447.95 91.6105L444.75 107.74H445.02C447.08 102.89 449.81 98.9305 453.2 95.8705C458.83 90.7805 466.1 88.2305 475.01 88.2305C485.27 88.2305 492.63 91.3505 497.1 97.5605C501.57 103.79 502.68 112.56 500.44 123.87H500.43Z" fill="#191919"/>
<path d="M869.88 121.55C869.6 123.03 869.04 124.49 868.42 125.79C867.47 127.8 866.23 129.71 864.72 131.35C861.31 135.08 856.55 137.24 851.58 137.97C847.23 138.6 842.8 138.18 838.45 137.76C834.1 137.34 829.46 137.08 824.95 137.01C815.93 136.88 806.91 137.49 797.99 138.84C787.2 140.47 778.43 143.18 768.64 148.08C768.48 148.16 768.33 148.24 768.18 148.32C764.36 150.34 760.78 152.72 757.52 155.52C744.64 166.6 738.41 182.89 733.3 198.66C729.82 209.44 726.41 220.67 718.6 229.17C706.57 242.24 686.54 245.81 668.38 245.81H582.18C581.18 245.81 580.43 244.91 580.63 243.92L582.5 234.29C584.02 226.45 590.9 220.79 598.88 220.79H658.86C674.33 220.79 690.88 218.63 699.45 206.79C704.26 200.14 705.65 191.9 707.61 184.05C714.49 156.6 731.62 129.58 759.1 118.76C751 113.7 745.12 105.52 743.06 96.5304C739.3 79.9204 748.2 63.2104 749.03 46.2404C749.39 39.0104 747.69 30.8704 741.35 26.8604C736.91 24.0504 731.21 23.9604 725.87 23.9604C705.83 23.9804 684.78 23.9904 661.47 24.0104H644.41C633.93 24.0104 626.06 14.4604 628.07 4.18043L628.63 1.26043C628.78 0.520435 629.42 -0.0195653 630.18 -0.0195653C642.58 -0.0195653 709.65 0.0504347 733.25 -0.0195653C746.88 -0.0495653 762.18 0.580435 771.41 10.0704C774.47 13.2204 776.43 16.8804 777.57 20.8504C777.63 21.0104 777.67 21.1704 777.71 21.3404C780.36 31.0604 778.27 42.5204 775.61 52.6504C772.18 65.8204 768.5 81.1304 775.86 93.7204C778.78 98.7204 783.36 102.42 788.8 104.38C791.84 105.48 793.14 106.03 796.37 106C797.99 105.98 799.59 105.83 801.19 105.54C804.37 104.99 807.81 104.21 810.68 103.65C812.05 103.38 813.43 103.14 814.82 102.94C818.59 102.41 822.62 102.31 826.47 103.07C829.28 103.63 832.03 104.67 834.38 106.33C836.89 108.09 838.36 110.28 839.68 113C840.42 114.52 841.34 116.06 842.82 116.85C845.49 118.27 849.64 117.32 852.51 117.09C855.5 116.85 858.47 116.39 861.45 116.04C862.9 115.87 864.35 115.72 865.81 115.66C866.96 115.61 868.21 115.76 869.06 116.6C869.68 117.21 869.97 118.09 870.04 118.96C870.1 119.8 870.03 120.67 869.87 121.52L869.88 121.55Z" fill="url(#paint0_linear_738_3463)"/>
<path d="M91.1904 59.3801H24.9204C24.2504 59.3801 23.6704 59.8601 23.5404 60.5201L0.0304028 181.59C-0.139597 182.46 0.530403 183.27 1.4104 183.27H15.1704C21.9104 183.27 27.7204 178.48 29.0104 171.86L35.6604 137.67C35.7904 137.01 36.3704 136.52 37.0404 136.52H61.6204C68.3804 136.52 74.1804 131.73 75.4604 125.1L76.9804 117.26C77.1504 116.4 76.4804 115.58 75.5904 115.58H41.6304C40.7504 115.58 40.0704 114.77 40.2504 113.9L46.5904 81.4501C46.7204 80.7901 47.3004 80.3101 47.9704 80.3101H77.2204C83.9804 80.3101 89.7804 75.5201 91.0604 68.8901L92.5804 61.0501C92.7504 60.1801 92.0804 59.3701 91.1904 59.3701V59.3801Z" fill="#191919"/>
<path d="M606.23 78.1299C603.86 72.1899 599.8 67.5799 594.09 64.2999C588.36 61.0399 581.22 59.3799 572.63 59.3799H534.18C533.22 59.3799 532.4 60.0599 532.22 60.9899L508.53 180.88C508.29 182.12 509.23 183.27 510.49 183.27H548.15C556.72 183.27 564.53 181.6 571.55 178.27C578.59 174.92 584.49 170.25 589.22 164.27C593.95 158.27 597.1 151.31 598.67 143.38L607.42 99.0999C609.01 91.0599 608.62 84.0599 606.24 78.1299H606.23ZM582.05 99.1099L573.28 143.39C572.32 148.27 569.97 152.16 566.24 155.1C562.49 158.06 558.02 159.53 552.84 159.53H538.13L553.23 83.1599H567.94C573.12 83.1599 577.02 84.6299 579.59 87.5699C582.16 90.5099 583 94.3599 582.06 99.1199L582.05 99.1099Z" fill="#191919"/>
<path d="M695.03 67.9499C688.73 62.2399 679.3 59.3799 666.77 59.3799H628.67C627.72 59.3799 626.89 60.0599 626.71 60.9899L603 180.88C602.76 182.12 603.7 183.27 604.96 183.27H643.82C652.49 183.27 660.29 181.8 667.18 178.86C674.08 175.92 679.79 171.76 684.28 166.37C688.79 161 691.75 154.7 693.2 147.46C694.44 141.13 694.08 135.81 692.12 131.5C690.14 127.22 687.1 123.99 682.94 121.83C678.8 119.69 673.96 118.67 668.41 118.77L668.51 118.28C673.47 118.28 678.28 117.14 682.98 114.87C687.65 112.61 691.65 109.44 695 105.36C698.35 101.3 700.55 96.5499 701.63 91.1199C703.55 81.3899 701.34 73.6499 695.04 67.9399L695.03 67.9499ZM667.91 146.12C666.87 151.32 664.48 155.38 660.75 158.32C657.02 161.28 652.36 162.75 646.86 162.75H631.13L637.74 129.31H653.47C658.98 129.31 663.04 130.82 665.61 133.82C668.16 136.8 668.94 140.92 667.92 146.12H667.91ZM675.4 94.5199C674.5 99.0499 672.38 102.64 669.03 105.29C665.68 107.94 661.52 109.29 656.56 109.29H641.69L647.48 79.9299H662.37C667.33 79.9299 670.96 81.1999 673.29 83.7499C675.6 86.2999 676.31 89.8899 675.39 94.5199H675.4Z" fill="#191919"/>
</g>
<defs>
<linearGradient id="paint0_linear_738_3463" x1="870" y1="-7.15412e-06" x2="578.042" y2="241.934" gradientUnits="userSpaceOnUse">
<stop stop-color="#7466FF"/>
<stop offset="0.5" stop-color="#FF66B3"/>
<stop offset="1" stop-color="#FF804D"/>
</linearGradient>
<clipPath id="clip0_738_3463">
<rect width="880.07" height="245.81" fill="white"/>
</clipPath>
</defs>
</svg>
