<svg width="508" height="508" viewBox="0 0 508 508" fill="none" xmlns="http://www.w3.org/2000/svg">
<g clip-path="url(#clip0_1462_204)">
<rect y="-1" width="508" height="508" rx="63.5" fill="url(#paint0_linear_1462_204)"/>
<rect y="-1" width="508" height="508" rx="63.5" fill="url(#paint1_linear_1462_204)"/>
<path d="M459.448 247.263C459.06 249.273 458.295 251.265 457.465 253.036C456.174 255.775 454.477 258.357 452.439 260.598C447.809 265.671 441.271 268.253 434.576 269.608C427.88 270.964 407.573 270.088 399.089 268.041C377.481 262.821 355.182 262.941 341.966 268.05C333.583 271.296 330.651 273.15 326.224 276.968C308.711 292.027 300.872 328.455 293.919 349.897C289.188 364.56 284.549 379.823 273.925 391.378C257.565 409.149 230.332 414 205.635 414H97.1546C95.7989 414 94.7752 412.773 95.0427 411.436L97.588 398.35C99.6538 387.689 109.005 379.998 119.869 379.998H192.706C213.732 379.998 236.234 377.056 247.891 360.963C254.43 351.916 256.311 340.711 258.985 330.051C268.346 292.728 271.454 258.219 308.822 243.5C297.811 236.621 289.806 225.499 287.021 213.27C281.902 190.694 294.011 167.962 295.136 144.897C295.634 135.075 293.319 123.999 284.697 118.549C278.656 114.722 270.91 114.611 263.652 114.611C236.409 114.639 219.182 114.657 187.504 114.676H180.145C165.897 114.685 155.199 101.691 157.919 87.7101L158.685 83.7446C158.879 82.7209 159.745 82.0016 160.778 82.0016C177.637 82.0016 241.602 82.103 273.695 82.0016C292.222 81.9555 313.036 82.8224 325.579 95.7242C329.738 100.013 332.394 104.992 333.962 110.387C334.035 110.6 334.091 110.83 334.155 111.051C337.752 124.267 334.921 139.852 331.296 153.621C326.63 171.531 321.632 192.345 331.628 209.461C335.603 216.258 341.828 221.293 349.224 223.959C353.356 225.453 355.126 226.2 359.516 226.163C361.711 226.144 363.897 225.923 366.064 225.536C370.38 224.779 375.074 223.728 378.966 222.963C380.829 222.594 382.701 222.262 384.591 221.994C389.719 221.275 395.206 221.137 400.426 222.179C404.253 222.944 407.988 224.355 411.188 226.605C414.591 229.003 416.602 231.982 418.391 235.671C419.396 237.737 420.641 239.83 422.67 240.909C426.303 242.846 431.938 241.545 435.848 241.232C439.915 240.909 443.955 240.273 448.012 239.802C449.986 239.572 451.959 239.369 453.942 239.277C455.501 239.203 457.198 239.406 458.369 240.559C459.208 241.388 459.605 242.587 459.697 243.768C459.78 244.911 459.678 246.083 459.457 247.254L459.448 247.263Z" fill="#F7F3EF"/>
<path d="M182.762 183.279L172.626 235.163C172.359 236.556 173.42 237.847 174.84 237.847H229.158C230.579 237.847 231.639 239.138 231.372 240.531L228.955 253.054C226.908 263.66 217.621 271.333 206.822 271.333H167.508C166.429 271.333 165.498 272.098 165.295 273.159L154.662 327.846C152.605 338.443 143.318 346.088 132.528 346.088H110.524C109.104 346.088 108.044 344.797 108.311 343.404L145.901 149.794C146.103 148.733 147.035 147.968 148.114 147.968H254.095C255.515 147.968 256.576 149.259 256.308 150.651L253.892 163.175C251.845 173.781 242.558 181.453 231.759 181.453H184.984C183.905 181.453 182.974 182.219 182.771 183.279H182.762Z" fill="#F7F3EF"/>
</g>
<defs>
<linearGradient id="paint0_linear_1462_204" x1="508" y1="-0.999974" x2="-71.0223" y2="100.054" gradientUnits="userSpaceOnUse">
<stop stop-color="#FF66B3"/>
<stop offset="1" stop-color="#FF804D"/>
</linearGradient>
<linearGradient id="paint1_linear_1462_204" x1="254" y1="507" x2="254" y2="-0.999989" gradientUnits="userSpaceOnUse">
<stop stop-color="#7466FF"/>
<stop offset="0.995636" stop-color="#7466FF" stop-opacity="0"/>
</linearGradient>
<clipPath id="clip0_1462_204">
<rect width="508" height="508" fill="white"/>
</clipPath>
</defs>
</svg>
